# xmcd
#
# Track frame offsets:
#	150
#	16668
#	29985
#	45794
#	65050
#	84440
#	101518
#	116351
#	127285
#	146948
#
# Disc length: 2159 seconds
# Revision: 0
# Processed by: cddbd v1.5.2PL0 Copyright (c) Steve Scherf et al.
# Submitted via: dBpowerAMP V12.0
#
DISCID=89086d0a
DTITLE=Vassendgutane - Hesteslepp
DYEAR=2013
DGENRE=Country
TTITLE0=Feite Egil
TTITLE1=Sola ho skine og ungane grine
TTITLE2=Bygdis
TTITLE3=Palma
TTITLE4=Ho va so fine
TTITLE5=Cowboyhatt og hjorte-vest
TTITLE6=Gjort e gjort
TTITLE7=Leiteaksjon på Mo
TTITLE8=Daude saude
TTITLE9=Jack Daniels Whiskey
EXTD=
EXTT0=
EXTT1=
EXTT2=
EXTT3=
EXTT4=
EXTT5=
EXTT6=
EXTT7=
EXTT8=
EXTT9=
PLAYORDER=
